<svg xmlns="http://www.w3.org/2000/svg" width="1536" height="576" viewBox="0 0 1536 576" role="img" aria-labelledby="title desc">
  <title id="title">hockey-smash-parallax-kenai-mountains-bg-1536x576.svg</title>
  <desc id="desc">Editable far parallax background for Hockey Smash with snow-capped Alaska mountains, spruce trees, and sky. Exact dimensions: 1536 by 576 pixels.</desc>
  <defs>
    <linearGradient id="sky" x1="0" y1="0" x2="0" y2="576" gradientUnits="userSpaceOnUse">
      <stop offset="0" stop-color="#2f75b7"/>
      <stop offset="0.42" stop-color="#72a8cf"/>
      <stop offset="0.78" stop-color="#b9d8e9"/>
      <stop offset="1" stop-color="#d8ebf4"/>
    </linearGradient>
    <linearGradient id="far-ridge" x1="0" y1="210" x2="0" y2="470" gradientUnits="userSpaceOnUse">
      <stop offset="0" stop-color="#7795ae"/>
      <stop offset="1" stop-color="#4c6e88"/>
    </linearGradient>
    <linearGradient id="near-ridge" x1="0" y1="236" x2="0" y2="520" gradientUnits="userSpaceOnUse">
      <stop offset="0" stop-color="#405f7d"/>
      <stop offset="1" stop-color="#263e55"/>
    </linearGradient>
    <linearGradient id="snow" x1="0" y1="0" x2="0" y2="1">
      <stop offset="0" stop-color="#fbfdff"/>
      <stop offset="1" stop-color="#b9d4e7"/>
    </linearGradient>
    <pattern id="cloud-pixels" width="96" height="48" patternUnits="userSpaceOnUse">
      <rect width="96" height="48" fill="none"/>
      <rect x="8" y="20" width="38" height="8" fill="#dfeaf1" opacity="0.48"/>
      <rect x="30" y="12" width="24" height="8" fill="#f4fbff" opacity="0.42"/>
      <rect x="52" y="24" width="32" height="6" fill="#b9cbd7" opacity="0.28"/>
    </pattern>
  </defs>

  <rect width="1536" height="576" fill="url(#sky)"/>
  <rect width="1536" height="190" fill="url(#cloud-pixels)" opacity="0.48"/>

  <g id="soft-clouds" opacity="0.72">
    <path d="M58 157 h144 c18 0 18-15 0-15 h-31 c-5-23-42-25-53-6 c-25-12-62-4-67 21 Z" fill="#dbe8f0"/>
    <path d="M645 113 h130 c15 0 15-13 0-13 h-26 c-8-20-41-21-52-4 c-20-9-47-3-52 17 Z" fill="#eaf4fa"/>
    <path d="M1000 171 h181 c18 0 18-15 0-15 h-38 c-9-27-53-27-66-6 c-31-12-70-2-77 21 Z" fill="#d7e5ee"/>
    <path d="M1308 100 h94 c13 0 13-10 0-10 h-18 c-7-17-33-17-42-4 c-16-7-31-2-34 14 Z" fill="#eef8fc"/>
  </g>

  <g id="far-mountains">
    <path d="M0 360 L84 304 L166 336 L246 265 L329 338 L412 286 L518 354 L624 278 L716 330 L805 300 L908 348 L1016 260 L1116 338 L1218 292 L1326 338 L1432 276 L1536 326 L1536 576 L0 576 Z" fill="url(#far-ridge)"/>
    <path d="M246 265 l-72 64 l53-18 l27 22 l22-42 l53 47 Z" fill="url(#snow)" opacity="0.88"/>
    <path d="M624 278 l-77 70 l58-21 l27 27 l28-46 l56 22 Z" fill="url(#snow)" opacity="0.82"/>
    <path d="M1016 260 l-85 82 l63-28 l29 31 l28-52 l65 45 Z" fill="url(#snow)" opacity="0.9"/>
    <path d="M1432 276 l-84 68 l62-22 l24 24 l30-48 l72 28 Z" fill="url(#snow)" opacity="0.84"/>
    <path d="M0 382 C130 360 248 378 381 348 C517 318 646 371 780 344 C948 310 1087 369 1228 340 C1355 316 1454 348 1536 334 V576 H0 Z" fill="#5f7f98" opacity="0.38"/>
  </g>

  <g id="near-mountains">
    <path d="M0 430 L78 386 L150 422 L238 330 L317 414 L397 356 L486 428 L591 338 L690 415 L782 364 L890 430 L982 344 L1092 426 L1190 366 L1307 424 L1398 352 L1536 418 L1536 576 L0 576 Z" fill="url(#near-ridge)"/>
    <path d="M238 330 l-80 85 l56-22 l27 29 l30-59 l46 51 Z" fill="#eef8ff" opacity="0.9"/>
    <path d="M591 338 l-88 83 l62-24 l31 31 l27-54 l67 41 Z" fill="#dfeef7" opacity="0.82"/>
    <path d="M982 344 l-82 77 l61-21 l25 28 l31-55 l75 53 Z" fill="#eef8ff" opacity="0.88"/>
    <path d="M1398 352 l-86 72 l59-20 l29 29 l30-52 l84 37 Z" fill="#dfeef7" opacity="0.78"/>
    <path d="M0 456 C120 438 250 456 382 430 C538 399 656 454 803 424 C954 394 1085 459 1245 426 C1375 400 1480 430 1536 418 V576 H0 Z" fill="#1f3448" opacity="0.48"/>
  </g>

  <g id="spruce-tree-line">
    <rect x="0" y="500" width="1536" height="76" fill="#152b34"/>
    <g fill="#1f4645">
      <path d="M24 512 l22-64 l24 64 Z"/><rect x="43" y="506" width="7" height="34" fill="#183135"/>
      <path d="M91 514 l28-81 l30 81 Z"/><rect x="116" y="507" width="8" height="38" fill="#183135"/>
      <path d="M168 516 l20-58 l22 58 Z"/><rect x="186" y="511" width="6" height="31" fill="#183135"/>
      <path d="M252 514 l31-88 l32 88 Z"/><rect x="280" y="506" width="8" height="39" fill="#183135"/>
      <path d="M355 516 l23-70 l25 70 Z"/><rect x="376" y="510" width="7" height="34" fill="#183135"/>
      <path d="M466 514 l29-82 l31 82 Z"/><rect x="492" y="506" width="8" height="39" fill="#183135"/>
      <path d="M577 516 l22-64 l24 64 Z"/><rect x="596" y="510" width="7" height="34" fill="#183135"/>
      <path d="M683 515 l31-90 l34 90 Z"/><rect x="713" y="506" width="8" height="40" fill="#183135"/>
      <path d="M805 516 l23-66 l25 66 Z"/><rect x="826" y="510" width="7" height="34" fill="#183135"/>
      <path d="M903 514 l29-83 l31 83 Z"/><rect x="929" y="506" width="8" height="39" fill="#183135"/>
      <path d="M1015 516 l21-61 l23 61 Z"/><rect x="1034" y="511" width="7" height="32" fill="#183135"/>
      <path d="M1110 514 l34-94 l36 94 Z"/><rect x="1141" y="504" width="9" height="43" fill="#183135"/>
      <path d="M1245 516 l24-68 l26 68 Z"/><rect x="1267" y="509" width="7" height="35" fill="#183135"/>
      <path d="M1342 514 l32-89 l34 89 Z"/><rect x="1372" y="505" width="8" height="40" fill="#183135"/>
      <path d="M1467 516 l25-73 l27 73 Z"/><rect x="1490" y="509" width="7" height="35" fill="#183135"/>
    </g>
    <path d="M0 528 C126 512 250 532 384 510 C538 486 652 535 796 512 C956 486 1076 534 1232 512 C1375 492 1470 514 1536 504 V576 H0 Z" fill="#10242b" opacity="0.72"/>
  </g>

  <g id="snow-haze" opacity="0.48">
    <rect x="0" y="486" width="1536" height="12" fill="#d8ebf4"/>
    <rect x="0" y="500" width="1536" height="6" fill="#eef8ff"/>
  </g>

</svg>
